<mxfile host="app.diagrams.net" agent="Mozilla/5.0 (Windows NT 10.0; Win64; x64) AppleWebKit/537.36 (KHTML, like Gecko) Chrome/140.0.0.0 Safari/537.36" version="27.1.6">
  <diagram name="Page-1" id="IeJ9x41U4WN2ITQpSG38">
    <mxGraphModel grid="1" page="1" gridSize="10" guides="1" tooltips="1" connect="1" arrows="1" fold="1" pageScale="1" pageWidth="850" pageHeight="1100" math="0" shadow="0">
      <root>
        <mxCell id="0" />
        <mxCell id="1" parent="0" />
        <mxCell id="b-Evxh16UIy3PiH2xJMg-1" value="" style="rounded=1;whiteSpace=wrap;html=1;movable=0;resizable=0;rotatable=0;deletable=0;editable=0;locked=1;connectable=0;" vertex="1" parent="1">
          <mxGeometry x="425" y="200" width="365" height="310" as="geometry" />
        </mxCell>
        <mxCell id="b-Evxh16UIy3PiH2xJMg-2" value="" style="shape=image;verticalLabelPosition=bottom;labelBackgroundColor=default;verticalAlign=top;aspect=fixed;imageAspect=0;image=https://upload.wikimedia.org/wikipedia/commons/thumb/a/a8/Microsoft_Azure_Logo.svg/2560px-Microsoft_Azure_Logo.svg.png;" vertex="1" parent="1">
          <mxGeometry x="555.48" y="210" width="104.04" height="30" as="geometry" />
        </mxCell>
        <mxCell id="b-Evxh16UIy3PiH2xJMg-4" value="" style="rounded=1;whiteSpace=wrap;html=1;" vertex="1" parent="1">
          <mxGeometry x="650" y="312.5" width="120" height="85" as="geometry" />
        </mxCell>
        <mxCell id="b-Evxh16UIy3PiH2xJMg-7" value="" style="shape=image;verticalLabelPosition=bottom;labelBackgroundColor=default;verticalAlign=top;aspect=fixed;imageAspect=0;image=data:image/png,iVBORw0KGgoAAAANSUhEUgAAAlgAAAE7CAYAAAAB7v+1AAAAAXNSR0IArs4c6QAAAARnQU1BAACxjwv8YQUAAAAJcEhZcwAADsMAAA7DAcdvqGQAACHBSURBVHhe7d17eJx1nffxwGLbdXGLoPaBxY2rYi2HZrFAQVsClSXQUsKhaXqCgIpZ1kN0F02THgYKlJaW9JykTTphLzSrXNp1nwvjro/Gx8MTHkCi0mba0nbSUybnCSBX/r3395vcw4b027s5zMxvfvf9fl3X+3L/cHFIZn73ZyaTSQ4AAAAAICBKGgbyVPkTq3e6+48DAADwPz1+VjQMFD7QMBB64PmBxgeejzer/2xROaluxfPx+NA/P74v8b/XEC9fPjTCct2bAwAAYBc9ptSwKVvx/EC1O6TEIWQidZtiQ8NraHS5NxkAACC76FeGHmjoL1UDpnFowMjjJotrWfF8vEq/wub+KwEAAGSefvVHv0KlhklUGCzW5v54MazH1oMN7ZPdf10AAID0WNYwkJd4pcdno+psqQE5qP6zcUVDfzFjCwAApExJQ/e05Q39oRXh/uiKhrgT1JaH++MrwvEq3igPAADGbal+o3o4Hl4ejg9KgyPIqa9J4/KGvtnulwoAAMDbiobewhXheLM0LGhE4f7WFQ19Je6XDgAA4P2GhpUeDMKQIM+Wh+OxZQ39pe6XEgAABJ3+bcBl4XjLcj0UaGKF45EVDf0F7pcWAAAEjf6NQDWsmsWhQBNKfV2b9NfX/VIDAAC/e7BhYOpy/eZ1YRhQigvHq/VvYbpfegAA4EfLGvpKloXjMXEMUFpaFu6P66+7+y0AAAB+oT9yYejHVuqCT2ZSX3/96qH7LQEAADZb2hAvXxqOD4oXfcps4XhsCW+CBwDAXvrVksSrVuHEhZ2yKDV4q/nTOwAAWEZ/yviyvfGYdHGnLGlvPMJvGgIAYImle+Pl4gWdsi71vRpcWt9b6H7rAABAttE/ElwS7t+3NNzvkGXt7S13v40AACBbFDcM5C7Z2x8RL95kRUvC8UbelwUAQJZY3NA3e8nevrh00SbL2tvfUsQHkwIAYNbS+p7iJfX9g+rCrC/O5Ifq+6LL9nTz5ncAAEwo3ttbvkRdkMmH1ffFGVkAAGTYkvreUvHCTP6JkQUAQOYs1j8WlC7I5L/UyNK/wOB+6wEAQDosqesvKK7vHxQvxuTP6vuijCwAANJE/7iIcRXQGFkAAKTe0obe6cX6x0XqYkvBbLEaWXyEAwAAKaJfudAXV+miS4GrhQ8jBQBgggobBqYuru+PCBdaCmzxavfuAQAAxkq/UqEuqK1nXmAp6BXV95a6dxMAADBaelwtru9rUun33hC9r6K6vsHiut589+4CAABGY/Hevmrpwkr0XnV9MX6zEACAUVpc31soXlCJRlRU38ub3gEAOJfEbwzW9caliymRVFFdb8i9+wAAgJH0KxGL6ntbivRFk2iULarrGyzibxYCACArqu+vki6gROdqUX1fKz8qBABghEV13QXShZNo1PGjQgAA/od+5UFdICNnXDCJxhA/KgQAYJj763pDi/QFkmiC3c+PCgEAyMkprhnIvX9P3+CiOnWBJEpFe3rK3LsXAADBdP+e3qb763odolR1357eGK9iAQAC677dXYXSBZJoot1X113u3s0AAAgO/QrDvXt6Y/clLoZEqU3dtwaLGrqnuXc3AACC4d7anrL79qiLIVG6quutcu9uAAD4n3716p49vbF71UWQKF3ds7t3sGgnr2IBAAKisLanTLogEqU6XsUCAAQCr15RJuNVLABAIBTWdpXds6fHIcpU9+7pWe/e/QAA8J/Eq1e7e2IqhyiD8blYAAD/KtzdVVioLnhEme7u3Z3F7t0QAAB/URe6lpEXPqJMdPfunmb3bggAgH8U7unOUxc5faEjMpK+D7p3RwAA/GHh7p5q6aJHlLn4yAYAgI8UNgxMvbumZ/DuWnWRIzKVug/O5c3uAABb3bW7d/rC2u6ChTXdobtqe8ILa3taVQ6R6RZU82Z3AIAF9Ji6q7ardGFtb6O6gDGkKKvTg9+96wIAkD3u3Nk9bWFNZ4m+UN1V2x1VqYsWkS11xdy7MgAAZhXWdObeVd1ZvqCmOyJftIjsaWF112z3rg0AQGbpN6YPvVLV3TzyAkVkc+qJQsi9mwMAkBnza7sLVI0L9IWIyJd1tbp3dwAA0mt+TWfJ/OruiHp2r5/hE/m6gprOXPeuDwBAahVuGZg6P/Heqq6YdBEi8mv6CYX7MAAAIDX0sLqzpmf9/OruwfmJiw1R4Kp2Hw4AAEzcnbu6Su+s6YoJFxyiwKQeA7wPCwAwcXdUd82+s6a7RaUuLmRTW17qc/b9v37nZ6/1J/7v4voe8b9HY6i6mz+bAwAYP/3BoOqC0njGBYayvsoXe5wjJ99y3nnnnfd1IvaWs+EnveL/D42++Tu789yHCQAAo1ews7PkjuquuMohu3r8R91OX/ztM8ZVsvjA286On/aI/780ugp2xUrdhwoAAOem38SuLiDhkRcUsqNzjatkjKyJxhvdAQCjdPvOWMHt1Z2xAnUBIfsKjXJcJUuOLOmfReeMN7oDALzpN+wW7OquEi4iZEl6KOnBJA0prxhZ42xXF290BwCcnX4ju7pgtJ5xASFrGu+4SsbIGmd8ojsAQPIPO7vz/qG6M3a7uliQnU10XCVLjizpf4Pkbqvumu0+lAAAGKKGVfHtu7oGpQsH2VGqxlUyRtYY29VV6D6cAABQ42pXZ0jlkL1tT/G4Sqb/mfqfLf1v0oh28jcJAQCu23bFwuLFgqwpXeMqGSNr1IXchxUAIMj0uLpNXRjI3l74Va84ilJdcmRJt4GG+uKuzir3oQUACCrGlf1lalwlY2Sdq65G9+EFAAgixpX9ZXpcJWNkeRVrdh9iAICg+aIaV1/c2emQvb3QbGZcJUuMrJd6xNsW8OLzdnQ2fXFHZ2je9o7C/O0d092HHQDAz9QFoGrEBYEsy/S4SsbIGn3zdsaa1X+qx16swH0oAgD8Yt6OWOm8xGFPtpYt4yqZHlnb1MiSbiudpR2dg7fu6Gyat6OjjFe4AMBy+pmzPtjFA5+sqOnVPnHkmI6RNcF2dLbqJz/5O7unuQ9XAIAN9LNkdZDHzzjYyZqydVwlY2Slplt3du6bt+N0MX80GgCy3M1b2qfeuqMjeuuOmEN21vRKdo+rZEMjq1v8d6Axtr0jlr+to4yhBQBZ6tbtsWbxACcrsmVcJevrf9tZ88Mu8d+FxlVcPUEK6SdK7kMaAGBa/vaO8lvUIU12Ztu4SpYcWdK/E427eL4aWryiBQCG5e88nXfL9tigcFCTBdk6rpIxstJVR1Q9cSp0H+YAgEzSz3Jv2RaLqIHlkH29fCAujhbbem9kCf+ONNE6mviIBwDIsJu3x6ry1SFM9uWXcZVMj6zVamRJ/640sW7eFhvM39pR7j7sAQDplL+jM186jCn789u4SsbISm/qCVVL/pbOXPcIAACkmv7R4NztHVF14OpDlyzKr+MqWXJkSf/uNPHmbo/F524/XeIeBQCAVJq7taNcOnwpu/P7uErGyMpIjfymIQCkkP4zG3O3xQaFA5eyuKCMq2SMrPQ3d3uslT+7AwApMndbR6PKITu6uzrm7D8arHGVLDGyftApfl0oNc3Zdjr6+S2n89zjAQAwHl/Ydmq2dMhSdhbkcZWMkZX+5mzriM/ZdrLAPSYAAGOlDtJWlT5QKctbyLh6Lz2yVqmRJX2dKHXN3cKb3wFgzOZs6SiUDlXKvhhXZ8bIykyMLAAYoy9s62hVOZTdMa7OXnJkSV83Sl2fZ2QBwOjo91dIByllV4yrc8fIykyMLAAYhc9vPb1P5VD2tri2w4meHhBHBb2/Xj2y/i0mfh0pdd3IG98B4Oz0r2BLhydlT4yrscfISn83bT0dv4k/FA0Ashu3nt6nDkp9WFIWxrgaf3pkVaqRJX1dKTXduPVU5OYt7VPd4wQAoF23s32adGhSdsS4mngd3W85//R8h/j1pZTV5B4pAADtpq2nyoXDkrIgxlXqYmRlpCr3WAEA3Lj1VOuN6nCk7KqIcZXykiNL+npTiuJN7wCQk3PT5o7ps7ecdii7erShIzEGpJFAE0t/XfXXV/q6U0qKXfdsO38cGkCw3bDl9PrZW06pQ5GyJcZV+vufkSV/D2iCVZ3a5x4xABBMN2w5FVM5lB0xrjJXcmRJ3weaeNdvOcGHkAIIJvVMM186GMlMjKvMx8hKX9dvOTXIjwoBBNL1Vaerrq9SByEZ7x/1uOpiXJlIf93111/6vtDEuo4fFQIIouueO9kqHYqU2RhX5mNkpa8bnjs12z1yAMD/9Ev36tmlfoZJBrtjx2nGVZYUPTWQ+H5I3ycaf7PUEzn32AEA/7t+84kS6TCkzLbnP7vEiz2ZSX8/pO8TTSx93rhHDwD426yqk2GVQ2Z74sUO8UJPZtLfD+n7RBPrc1UnY3PXtk92jx8A8K9Zm09GZz2nDj8y3ksv94gXe8ps//67bvH7Q6npc8+dKHOPHwDwp1mb26d/LnHgUVC7r/qU8+Kvu53Onux5/1d84G2nZX+f8+0XOsTbTNbHe7EA+Nu1m04WC4cfBbBdP+0Ux46JXj/UJ95G8k+zNp8sdI8hAPCfa587uV7lEN2+/ZQ4dkz0+Isd4m0kX8WrWAD869pNJ/Zdu1kddkQqaeyYqHTvafH2kb/K23Qq3z2KAMBf/n7Ticjfbz7hEOmksWOir+49Jd4+8lnPnQy7RxEA+If+VWnx0KPAJo0dEzGwAtKmE3E+sgGA78x8tj0vTx1yRMmksWMiPbCk20f+a+am9mL3SAIAf9AH28xN+oAjGkoaOyb6av0p8faRL+OPQAPwl2uebS8TDjsKcNLYMREDK1ANztzSPtU9lgDAftdsOhFSOUTJpLFjokfUwJJuH/m0Z9v5+4QA/OPqTSfD4mFHgU0aOyZiYAUrfRa5xxIA2O/qZ483Xr3puDrciIaSxo6JHqk/Kd4+8m1R91gCAPupgdWscoiSSWPHRImBJdw+8m95z7TnukcTANjtyo3HI1epg40omTR2TKQHlnT7yL9dyfuwAPjFVRuPx6SDjoKbNHZMxMAKYBuP8z4sAP5w5bPHoyr1zJFoKGnsmOgramBJt4/824yNx/njzwD8YcaG461XblSHG5GbNHZM9JU6NbCE20e+btA9mgDAbjM2RptnbGxXzxyJhpLGjom+UndCvH3k7654un26ezwBgL3UwApLhxwFN2nsmIiBFdgK3eMJAOz12Q3R6s+qQ40omTR2TKQHlnT7yN9N3xhd7x5PAGCv6RvbQ9IhR8FNGjsmYmAFtA1R/vAzAPtNX99eOn2DetZI5CaNHRN9ec8J8faRv/vMhmizezwBgL2u2NBe/JnEoUY0lDR2TKQHlnT7yN9dsSEacY8nALDXp59tz5MOOQpu0tgxEQMrmKmBxd8kBGC/y9e2T75iw7FBdajpg41IHDsm+vKe4+LtI//nHk8AYLdPP3Os9Ypn1MFGpJLGjom+vFsNLOH2kf/TT/zc4wkA7PXpZ6KNKodIJ40dE+mBJd0+8n+feaY91z2eAMBen15/tEw65CiYSWPHRAys4JYbap/qHk8AYK9Prj9S8Cl1qBHppLFjoi+pgSXdPvJ/7tEEAHbTzxY/tV4dbEQqaeyYKDGwhNtHfu9Y3D2aAMB+n3z6WPST6nAjksaOifTAkm4f+Tx1FrnHEgDY7+/WR8Mqh0gaOybSA0u6feT3jrW6xxIA2C/3qaMl8mFHQUsaOyZiYAU2/lQOAP/Q78P6hDrciKSxYyI9sKTbR76v0T2WAMAfPvH0sRaVQ8FOGjsm+lJtu3j7yN/lPnms3D2SAMAfcp8+FlI5FOyksWOih9XAkm4f+b0jhe6RBAD+kPvkkfy/VQccBTtp7JhIDyzp9pHfa5/uHkkA4B8ff/poXD70KChJY8dEDKxgxt8hBOBLlz99LPzxp445FNyksWOih2vaxdtH/u3yJ49G3KMIAPzlsqfenC0dfBScpLFjIgZWINvnHkUA4D+XP3ms9XJ12FEwk8aOifTAkm4f+be/eepomXsMAYD/6EPubxKHHQUxaeyY6CE1sKTbR/7t0qcO57nHEAD4j/7Q0cueOjooHYDk/6SxYyIGVrBSZ07MPYIAwL8uffJY+LIn1aFHgUsaOyZ6qLpdvH3kz/SZ4x4/AOBf+s3ulz15VB18FLSksWOih6qj4u0jf3bpuqMl7vEDAP72v9Ydbb1UH3wUqKSxYyI9sKTbR/7so6H2XPfoAQB/u3TdkULpICR/J40dEzGwAtS6oy3usQMAwaBfxVI5FJyksWMiPbCk20c+7Ik3S90jBwCCQb+KJR6I5NuksWMiBlYwmrbuyKD+zWX3yAGA4Ji27mirSh2EFISksWMiPbCk20f+6mNPHGl0jxoACJaPrjtUqJ5lqsOQgpA0dkw0NLDk20j+6aNPHilwjxoACB71LLNVpZ9tks+Txs5oikbecf74m6FOHpX/O2OpZFdUvH3kp97kw0UBBNvHQkfy5QOS/JY0dqTaj3U4r7962Pmvl37v7Hjmp07oq03Ot+c3ObvLTjuNle86+zb92Xn1Z38e99hiYAWgdUfWu0cMAATXR544Ev6oOhTJ340cOgMDbzmHIsed3/zyT86PGn+XGFNFebvP2pJZ9c6/fqc/MbKSjWds6YEl3T7yRx954s3BS0Lt09zjBQCC68JQ+1R1KMakw5L80RWVB5y2N44lXpWqrfpPZ2XpD8QRda5qvnHifQNreKMdWwwsn7fuSJV7tAAALgkdLv6IOhzJ/mb+y+vOTY/+1pn34M+dBXf/2Ln/ujpxLI2nhsd6xXE1Mq+xpQeWdLvJ/i7h1SsAONPFj7+575LH33TIjj6xqs255p9/79z8pV86ty/+385dBf8mjqJUNtqBNTw9tn7/iz87sZPuwNp5TPz3Ifu7+HFevQKAM1wSOjDtkscPx6WDk8w247t/dK77+stO/kP/x1mw8EfO/TfuFQdQuhvPwBref2x719n8TI+zMNQu/nuSvV38+OFBfYa4xwkAYLiLQm+WXpw4LMlEl605mHhVas5XfuXctuSnzoIFL4pDx1QTHVjDq1v1thNa050YW9LXguzqw6HDIfcYAQBIPvz4m/ukA5RS2xXlf3JmffOVxI/47rj3353CW14QR002lcqBNTzGlt2pMyNy+dr2ye4RAgCQ6N8q/PDaw1H1jFQ/K6UUdM23X3NuKv2NM2/ZzxI/4pPGiw2la2AN772xtTYqfi0p+7oodIhPbQeA0bg4dGj6RWsPDUqHKZ29T618w8kre8W5+eFfOAX3/cQpvO174lCxtUwMrOExtixo7eF97rEBABiNqaFDhRepA5TkrvqX150b/ul3Tn7Jz535+o3ns8288TyTZXpgDW/42JK+H2Qg9SSMN7YDwDhctPZwlXiwBqhLV0ecq7/9mjPny83O7UWZ+TiEbM3kwBoeYytbOljqHhUAgLH60NrDzVPVYRqEPvudPzizvtaS+BGfflXqnjn/Kg6NoJYtA2t4w8eW9D2l9KTOBX40CAATMSV0YNpfrzkUnbr2kOOXPrb6oHP1t151bnrkV868ZU3O/LvsfeN5JsvGgTW8usq3nTWru5yCNUfF7zulJn0e6F+GcY8IAMB4XRg6mPshdaj+tT5cLewq/YnnD/3CueOefU5hfvZ/HEK2lu0Da3h7Vr3lVKyOJcaWdJ+gcbbm4OCFochs92gAAEyUrSNLv0IljQUaezYNrOExtlLXhWsOlblHAgAgVfTIUgds9EPqoLWhj1fsF4cCjS9bB9bwho8t6T5DZ++v1h4Ku0cBACDVEiNrtRpZa9Shm+Vd9a1XxaEQxJbNCjtfu+WHTvn8l5wn7v2ls3HJy07FgrG9uueHgTW8PZVqbK1SY2u1GlvufYbkLlxzsMk9AgAA6TI0siJRdejqgzdru+pbr4hDwc8tubYuMaS+c+dLzpq7f54YUjtL/uBUP/zGGa1e+F/iP+Ns+W1gDS85tm5XY0u6LwW7SHMOfwoHADJDj6wPro5E5AM5O/L7wHo0/wfOYwU/SQwlPaS2PvB7cUidLQaWHGPrfbVeGPoDvzEIAJmkD94Pqme3f6UO4mzMLwPrkTmNzjfn/TgxiDYs/q1Ttfw1cTCNNQbWuRs+tqT7mJ9TT6Ci+mNa3Ic7ACDT/nL1oeoPrtYHcnZ1VZl9A0v/eE8Pn6cX/dp5bukr4jBKVQyssZUYW5VDY0u6v/mpKasjkUmhg7nuQxwAYMqUykiZdFCbzMaBNdYf800kBtb4S46tW1YdEe97NjdlNT8WBICsMmV1W+GUVQfjf6kO6WzoSoMDa+SbzUuuf178742MgWVfNZVx558rTyfGlnQ/tCk1rpp4QzsAZKEPVByarg7pFunwznSZGFjSb+1te/D1M8bMwzeN7u8aMrDszuaxNWVNhM+5AoCspp4BT1p9cP2U1RH9Xg5jpXJgjXZInS0GVvAaGlunEmNLun9mU5NWtYXcRy8AINtNrozMnrwqEpmySh3iBrrym+MbWHpITeTjD6QYWMGupsIdW5VqbAn3VVNNqozEJq06mO8+ZAEA1tCvZlUeXK+GlpPpxjKw9Keap3PcMLAo2U41tu5ddVS8z2ayD1RGmnJ4MzsA2G3SqgMFk1a1RaWDPl2NZWCtW/R/xRGSqhhYNLzvVbzjXLXqkHi/zUTq8VjuPjQBANZb2z5ZPWsum1QZiU9KHPLpjYHlHQPLbI9UnhDvt+mtreWCygN57iMSAOAroT9MvWBVW9WkirZBNbb0+0DS0pXfYGB5xcAy26OVJ8X7bVqqiMQvqGwrdR+BAAA/m1R+MPcvKg/s+0Blm5OOrvzG/xeHghQD69wxsFLbo5UnxPttqrugoi3Me60AIIAuqIzMVs+um6SLw0RiYHnHwDJbugeWekw168eW+zADAASVfkXr/FVtVeoZt/5xhr5ATKgZDCzPGFhm0wNLut+moKbzVu3noxcAACOsbZ98QeWBkvMr2yLCxWPUMbC8Y2CZLdUDS/+4nTewAwBG5bzy/fnnV7SFz1/ZFv+LCnURGUMzvs7A8oqBZbZHK06I99uxpB4bsfMrDlTnVLwx3X3IAAAwNuetPFCQoy4mQxeVxMXFMwaWdwwss+mBJd1vR1POyrbG8yr2F7sPDQAAUuS7kdk5FW1V6tl7VLoA6RhY3jGwzDamgbXywGDOygP7zl/ZVprz2IFp7qMAAIA00hecijcK1bP69TkVB5rPqzjg6GZ8/WVxKEgxsM4dAyu1/aMaWMn7qpS6L7fkVOwP5Xz3T/wmIAAgS6iL0g0P/WKHNBSkGFjnjoGV2hIDa6UaUiv3x3JWHmhOPEFY+UZpTvn+fP2LHu49GQCA7HJ/Xk2+NBSkGFjnjoGV2jZX9D7DkAIAWIeB5R0Dy2zfq3y3xL2rAgBgDwaWdwwsszGwAABWYmB5x8AyGwMLAGAlBpZ3DCyzMbAAAFZiYHnHwDIbAwsAYCUGlncMLLMxsAAAVmJgecfAMhsDCwBgJQaWdwwsszGwAABWYmB5x8AyGwMLAGAlBpZ3DCyzMbAAAFZiYHnHwDIbAwsAYCUGlncMLLMxsAAAVmJgecfAMhsDCwBgJQaWdwwsszGwAABWYmB5x8AyGwMLAGAlBpZ3DCyzMbAAAFZiYHnHwDIbAwsAYCUGlncMLLMxsAAAVmJgecfAMhsDCwBgJQaWdwwsszGwAABWYmB5x8AyGwMLAGAlBpZ3DCyzMbAAAFZiYHnHwDIbAwsAYCUGlncMLLMxsAAAVmJgecfAMhsDCwBgJQaWdwwsszGwAABWYmB5x8AyGwMLAGAlBpZ3DCyzMbAAAFZiYHnHwDIbAwsAYCUGlncMLLMxsAAAVmJgecfAMhsDCwBgJQaWdwwsszGwAABWYmB5x8AyGwMLAGAlBpZ3DCyzMbAAAFZiYHnHwDIbAwsAYCUGlncMLLMxsAAAVmJgecfAMhsDCwBgJQaWdwwsszGwAABWYmB5x8AyGwMLAGAlBpZ3DCyzMbAAAFZiYHnHwDIbAwsAYCUGlncMLLMxsAAAVmJgecfAMhsDCwBgJQaWdwwsszGwAABWYmB5x8AyGwMLAGAlBpZ3DCyzMbAAAFZiYHnHwDIbAwsAYCUGlncMLLMxsAAAVmJgecfAMhsDCwBgJQaWdwwsszGwAABWYmB5x8AyGwMLAGAlBpZ3DCyzMbAAAFZiYHnHwDIbAwsAYCUGlncMLLMxsAAAVmJgecfAMhsDCwBgJQaWdwwsszGwAABWYmB5x8AyGwMLAGAlBpZ3DCyzMbAAAFZiYHnHwDIbAwsAYCUGlncMLLMxsAAAVmJgecfAMhsDCwBgJQaWdwwsszGwAABWYmB5x8AyGwMLAGAlBpZ3DCyzMbAAAFZiYHnHwDIbAwsAYCUGlncMLLMxsAAAVmJgecfAMhsDCwBgJQaWdwwsszGwAABWYmB5x8AyGwMLAGAlBpZ3DCyzfb/inUL3rgoAgD0YWN4xsAxW8W5Lw1pnsntXBQDAHgws7xhYGa9Rv2r1QuXbs927KAAA9mFgecfASn/fr3w3qkZV+YuPvTvNvVsCAGA3BpZ3DKy01ti48t0C964IAIB/jGVgVSxoEkdIqmJg+T9erQIABMJYBlayR+Y0Ot+58yXniXt/6Wxa8rI4TMYTA8vX8WoVACA4xjOwpB7N/4FTPv+lxI8Rn1v6ijhWzhUDy1/xahUAILBSNbCkvnbLDxOj6+lFv3aqlr8mDpjhMbB8E69WAQCCLZ0Da2RLrq1LjC79Xq71i397xlBiYNkbr1YBADBMJgeW1LJZ4cTo0kNG/9/Sf2dkDKysilerAAAYyfTAGk8MLLPxahUAAOfAwPKOgfW+eLUKAIDRsHFg6ZI/WtRvol9z98+djUtedrY9+Lo4kiZS0AcWr1YBADAOtg4sr/TweqzgJ4lxtGHxb0f1G4xnK8ADi1erAAAYr/uu3j1dGgp+TH9A6jfn/TgxmvRHR4zmQ1KDNLB4tQoAgBRaNLO2VRoLQUl/PETyNxn1p9PrHzfueuiPQRpYvFoFAECqFc5smLoob3d10czauDQagpp+n9doP5srmS0Di1erAADIoKEfGdaU6MGlapFGBJ09CwYWr1YBAJANEm+En7m7fNHM2n1qdMWkYUFDZePA4tUqAAAsUJxXk7to5u5iNbqqVM3S0AhqWTaweLUKAACbLb6mevaivNqyorzaRjW+otL4CEKmBxavVgEA4GNFM3ZOW5y3u1CNrvX6VS71n4PSIPFbBgcWr1YBABBERTP35BXNrC1dNHN3uCivNiINFNvL5MDi1SoAAHCGxMdDzKwtUMMklHgvlw8+JiJDA4tXqwAAwOi972MiLPwA1HQNLF6tAgAAKfPg5Q2T3b+XGFKjqynbX+VKw8Di1SoAAJB+wz8mIts+DDUVA4tXqwAAQFbIlg9DneDA4tUqAACQvUZ+TIQ0htLRWAcWr1YBAACrZeLDUMcwsHi1CgAA+M/Ij4lIxYeheg0sXq0CAACBNNEPQz3LwOLVKgAAgKSxfEzEkln1740qXq0CAAAYA+nDUB/6wvedHY8e49UqAFksJ+e/AZdC2gEmz/kGAAAAAElFTkSuQmCC;" vertex="1" parent="1">
          <mxGeometry x="670" y="320" width="76.19" height="40" as="geometry" />
        </mxCell>
        <mxCell id="CoAsc56-ZY_6wRdm-BIm-3" value="Base de Datos&lt;div&gt;MySql&lt;/div&gt;" style="text;html=1;align=center;verticalAlign=middle;whiteSpace=wrap;rounded=0;" vertex="1" parent="1">
          <mxGeometry x="663.09" y="360" width="90" height="30" as="geometry" />
        </mxCell>
        <mxCell id="CoAsc56-ZY_6wRdm-BIm-5" value="" style="rounded=1;whiteSpace=wrap;html=1;" vertex="1" parent="1">
          <mxGeometry x="490" y="380" width="120" height="85" as="geometry" />
        </mxCell>
        <mxCell id="CoAsc56-ZY_6wRdm-BIm-6" value="" style="shape=image;verticalLabelPosition=bottom;labelBackgroundColor=default;verticalAlign=top;aspect=fixed;imageAspect=0;image=data:image/png,iVBORw0KGgoAAAANSUhEUgAAAlgAAAE7CAYAAAAB7v+1AAAAAXNSR0IArs4c6QAAAARnQU1BAACxjwv8YQUAAAAJcEhZcwAADsMAAA7DAcdvqGQAACHBSURBVHhe7d17eJx1nffxwGLbdXGLoPaBxY2rYi2HZrFAQVsClSXQUsKhaXqCgIpZ1kN0F02THgYKlJaW9JykTTphLzSrXNp1nwvjro/Gx8MTHkCi0mba0nbSUybnCSBX/r3395vcw4b027s5zMxvfvf9fl3X+3L/cHFIZn73ZyaTSQ4AAAAAICBKGgbyVPkTq3e6+48DAADwPz1+VjQMFD7QMBB64PmBxgeejzer/2xROaluxfPx+NA/P74v8b/XEC9fPjTCct2bAwAAYBc9ptSwKVvx/EC1O6TEIWQidZtiQ8NraHS5NxkAACC76FeGHmjoL1UDpnFowMjjJotrWfF8vEq/wub+KwEAAGSefvVHv0KlhklUGCzW5v54MazH1oMN7ZPdf10AAID0WNYwkJd4pcdno+psqQE5qP6zcUVDfzFjCwAApExJQ/e05Q39oRXh/uiKhrgT1JaH++MrwvEq3igPAADGbal+o3o4Hl4ejg9KgyPIqa9J4/KGvtnulwoAAMDbiobewhXheLM0LGhE4f7WFQ19Je6XDgAA4P2GhpUeDMKQIM+Wh+OxZQ39pe6XEgAABJ3+bcBl4XjLcj0UaGKF45EVDf0F7pcWAAAEjf6NQDWsmsWhQBNKfV2b9NfX/VIDAAC/e7BhYOpy/eZ1YRhQigvHq/VvYbpfegAA4EfLGvpKloXjMXEMUFpaFu6P66+7+y0AAAB+oT9yYejHVuqCT2ZSX3/96qH7LQEAADZb2hAvXxqOD4oXfcps4XhsCW+CBwDAXvrVksSrVuHEhZ2yKDV4q/nTOwAAWEZ/yviyvfGYdHGnLGlvPMJvGgIAYImle+Pl4gWdsi71vRpcWt9b6H7rAABAttE/ElwS7t+3NNzvkGXt7S13v40AACBbFDcM5C7Z2x8RL95kRUvC8UbelwUAQJZY3NA3e8nevrh00SbL2tvfUsQHkwIAYNbS+p7iJfX9g+rCrC/O5Ifq+6LL9nTz5ncAAEwo3ttbvkRdkMmH1ffFGVkAAGTYkvreUvHCTP6JkQUAQOYs1j8WlC7I5L/UyNK/wOB+6wEAQDosqesvKK7vHxQvxuTP6vuijCwAANJE/7iIcRXQGFkAAKTe0obe6cX6x0XqYkvBbLEaWXyEAwAAKaJfudAXV+miS4GrhQ8jBQBgggobBqYuru+PCBdaCmzxavfuAQAAxkq/UqEuqK1nXmAp6BXV95a6dxMAADBaelwtru9rUun33hC9r6K6vsHiut589+4CAABGY/Hevmrpwkr0XnV9MX6zEACAUVpc31soXlCJRlRU38ub3gEAOJfEbwzW9caliymRVFFdb8i9+wAAgJH0KxGL6ntbivRFk2iULarrGyzibxYCACArqu+vki6gROdqUX1fKz8qBABghEV13QXShZNo1PGjQgAA/od+5UFdICNnXDCJxhA/KgQAYJj763pDi/QFkmiC3c+PCgEAyMkprhnIvX9P3+CiOnWBJEpFe3rK3LsXAADBdP+e3qb763odolR1357eGK9iAQAC677dXYXSBZJoot1X113u3s0AAAgO/QrDvXt6Y/clLoZEqU3dtwaLGrqnuXc3AACC4d7anrL79qiLIVG6quutcu9uAAD4n3716p49vbF71UWQKF3ds7t3sGgnr2IBAAKisLanTLogEqU6XsUCAAQCr15RJuNVLABAIBTWdpXds6fHIcpU9+7pWe/e/QAA8J/Eq1e7e2IqhyiD8blYAAD/KtzdVVioLnhEme7u3Z3F7t0QAAB/URe6lpEXPqJMdPfunmb3bggAgH8U7unOUxc5faEjMpK+D7p3RwAA/GHh7p5q6aJHlLn4yAYAgI8UNgxMvbumZ/DuWnWRIzKVug/O5c3uAABb3bW7d/rC2u6ChTXdobtqe8ILa3taVQ6R6RZU82Z3AIAF9Ji6q7ardGFtb6O6gDGkKKvTg9+96wIAkD3u3Nk9bWFNZ4m+UN1V2x1VqYsWkS11xdy7MgAAZhXWdObeVd1ZvqCmOyJftIjsaWF112z3rg0AQGbpN6YPvVLV3TzyAkVkc+qJQsi9mwMAkBnza7sLVI0L9IWIyJd1tbp3dwAA0mt+TWfJ/OruiHp2r5/hE/m6gprOXPeuDwBAahVuGZg6P/Heqq6YdBEi8mv6CYX7MAAAIDX0sLqzpmf9/OruwfmJiw1R4Kp2Hw4AAEzcnbu6Su+s6YoJFxyiwKQeA7wPCwAwcXdUd82+s6a7RaUuLmRTW17qc/b9v37nZ6/1J/7v4voe8b9HY6i6mz+bAwAYP/3BoOqC0njGBYayvsoXe5wjJ99y3nnnnfd1IvaWs+EnveL/D42++Tu789yHCQAAo1ews7PkjuquuMohu3r8R91OX/ztM8ZVsvjA286On/aI/780ugp2xUrdhwoAAOem38SuLiDhkRcUsqNzjatkjKyJxhvdAQCjdPvOWMHt1Z2xAnUBIfsKjXJcJUuOLOmfReeMN7oDALzpN+wW7OquEi4iZEl6KOnBJA0prxhZ42xXF290BwCcnX4ju7pgtJ5xASFrGu+4SsbIGmd8ojsAQPIPO7vz/qG6M3a7uliQnU10XCVLjizpf4Pkbqvumu0+lAAAGKKGVfHtu7oGpQsH2VGqxlUyRtYY29VV6D6cAABQ42pXZ0jlkL1tT/G4Sqb/mfqfLf1v0oh28jcJAQCu23bFwuLFgqwpXeMqGSNr1IXchxUAIMj0uLpNXRjI3l74Va84ilJdcmRJt4GG+uKuzir3oQUACCrGlf1lalwlY2Sdq65G9+EFAAgixpX9ZXpcJWNkeRVrdh9iAICg+aIaV1/c2emQvb3QbGZcJUuMrJd6xNsW8OLzdnQ2fXFHZ2je9o7C/O0d092HHQDAz9QFoGrEBYEsy/S4SsbIGn3zdsaa1X+qx16swH0oAgD8Yt6OWOm8xGFPtpYt4yqZHlnb1MiSbiudpR2dg7fu6Gyat6OjjFe4AMBy+pmzPtjFA5+sqOnVPnHkmI6RNcF2dLbqJz/5O7unuQ9XAIAN9LNkdZDHzzjYyZqydVwlY2Slplt3du6bt+N0MX80GgCy3M1b2qfeuqMjeuuOmEN21vRKdo+rZEMjq1v8d6Axtr0jlr+to4yhBQBZ6tbtsWbxACcrsmVcJevrf9tZ88Mu8d+FxlVcPUEK6SdK7kMaAGBa/vaO8lvUIU12Ztu4SpYcWdK/E427eL4aWryiBQCG5e88nXfL9tigcFCTBdk6rpIxstJVR1Q9cSp0H+YAgEzSz3Jv2RaLqIHlkH29fCAujhbbem9kCf+ONNE6mviIBwDIsJu3x6ry1SFM9uWXcZVMj6zVamRJ/640sW7eFhvM39pR7j7sAQDplL+jM186jCn789u4SsbISm/qCVVL/pbOXPcIAACkmv7R4NztHVF14OpDlyzKr+MqWXJkSf/uNPHmbo/F524/XeIeBQCAVJq7taNcOnwpu/P7uErGyMpIjfymIQCkkP4zG3O3xQaFA5eyuKCMq2SMrPQ3d3uslT+7AwApMndbR6PKITu6uzrm7D8arHGVLDGyftApfl0oNc3Zdjr6+S2n89zjAQAwHl/Ydmq2dMhSdhbkcZWMkZX+5mzriM/ZdrLAPSYAAGOlDtJWlT5QKctbyLh6Lz2yVqmRJX2dKHXN3cKb3wFgzOZs6SiUDlXKvhhXZ8bIykyMLAAYoy9s62hVOZTdMa7OXnJkSV83Sl2fZ2QBwOjo91dIByllV4yrc8fIykyMLAAYhc9vPb1P5VD2tri2w4meHhBHBb2/Xj2y/i0mfh0pdd3IG98B4Oz0r2BLhydlT4yrscfISn83bT0dv4k/FA0Ashu3nt6nDkp9WFIWxrgaf3pkVaqRJX1dKTXduPVU5OYt7VPd4wQAoF23s32adGhSdsS4mngd3W85//R8h/j1pZTV5B4pAADtpq2nyoXDkrIgxlXqYmRlpCr3WAEA3Lj1VOuN6nCk7KqIcZXykiNL+npTiuJN7wCQk3PT5o7ps7ecdii7erShIzEGpJFAE0t/XfXXV/q6U0qKXfdsO38cGkCw3bDl9PrZW06pQ5GyJcZV+vufkSV/D2iCVZ3a5x4xABBMN2w5FVM5lB0xrjJXcmRJ3weaeNdvOcGHkAIIJvVMM186GMlMjKvMx8hKX9dvOTXIjwoBBNL1Vaerrq9SByEZ7x/1uOpiXJlIf93111/6vtDEuo4fFQIIouueO9kqHYqU2RhX5mNkpa8bnjs12z1yAMD/9Ev36tmlfoZJBrtjx2nGVZYUPTWQ+H5I3ycaf7PUEzn32AEA/7t+84kS6TCkzLbnP7vEiz2ZSX8/pO8TTSx93rhHDwD426yqk2GVQ2Z74sUO8UJPZtLfD+n7RBPrc1UnY3PXtk92jx8A8K9Zm09GZz2nDj8y3ksv94gXe8ps//67bvH7Q6npc8+dKHOPHwDwp1mb26d/LnHgUVC7r/qU8+Kvu53Onux5/1d84G2nZX+f8+0XOsTbTNbHe7EA+Nu1m04WC4cfBbBdP+0Ux46JXj/UJ95G8k+zNp8sdI8hAPCfa587uV7lEN2+/ZQ4dkz0+Isd4m0kX8WrWAD869pNJ/Zdu1kddkQqaeyYqHTvafH2kb/K23Qq3z2KAMBf/n7Ticjfbz7hEOmksWOir+49Jd4+8lnPnQy7RxEA+If+VWnx0KPAJo0dEzGwAtKmE3E+sgGA78x8tj0vTx1yRMmksWMiPbCk20f+a+am9mL3SAIAf9AH28xN+oAjGkoaOyb6av0p8faRL+OPQAPwl2uebS8TDjsKcNLYMREDK1ANztzSPtU9lgDAftdsOhFSOUTJpLFjokfUwJJuH/m0Z9v5+4QA/OPqTSfD4mFHgU0aOyZiYAUrfRa5xxIA2O/qZ483Xr3puDrciIaSxo6JHqk/Kd4+8m1R91gCAPupgdWscoiSSWPHRImBJdw+8m95z7TnukcTANjtyo3HI1epg40omTR2TKQHlnT7yL9dyfuwAPjFVRuPx6SDjoKbNHZMxMAKYBuP8z4sAP5w5bPHoyr1zJFoKGnsmOgramBJt4/824yNx/njzwD8YcaG461XblSHG5GbNHZM9JU6NbCE20e+btA9mgDAbjM2RptnbGxXzxyJhpLGjom+UndCvH3k7654un26ezwBgL3UwApLhxwFN2nsmIiBFdgK3eMJAOz12Q3R6s+qQ40omTR2TKQHlnT7yN9N3xhd7x5PAGCv6RvbQ9IhR8FNGjsmYmAFtA1R/vAzAPtNX99eOn2DetZI5CaNHRN9ec8J8faRv/vMhmizezwBgL2u2NBe/JnEoUY0lDR2TKQHlnT7yN9dsSEacY8nALDXp59tz5MOOQpu0tgxEQMrmKmBxd8kBGC/y9e2T75iw7FBdajpg41IHDsm+vKe4+LtI//nHk8AYLdPP3Os9Ypn1MFGpJLGjom+vFsNLOH2kf/TT/zc4wkA7PXpZ6KNKodIJ40dE+mBJd0+8n+feaY91z2eAMBen15/tEw65CiYSWPHRAys4JYbap/qHk8AYK9Prj9S8Cl1qBHppLFjoi+pgSXdPvJ/7tEEAHbTzxY/tV4dbEQqaeyYKDGwhNtHfu9Y3D2aAMB+n3z6WPST6nAjksaOifTAkm4f+Tx1FrnHEgDY7+/WR8Mqh0gaOybSA0u6feT3jrW6xxIA2C/3qaMl8mFHQUsaOyZiYAU2/lQOAP/Q78P6hDrciKSxYyI9sKTbR76v0T2WAMAfPvH0sRaVQ8FOGjsm+lJtu3j7yN/lPnms3D2SAMAfcp8+FlI5FOyksWOih9XAkm4f+b0jhe6RBAD+kPvkkfy/VQccBTtp7JhIDyzp9pHfa5/uHkkA4B8ff/poXD70KChJY8dEDKxgxt8hBOBLlz99LPzxp445FNyksWOih2vaxdtH/u3yJ49G3KMIAPzlsqfenC0dfBScpLFjIgZWINvnHkUA4D+XP3ms9XJ12FEwk8aOifTAkm4f+be/eepomXsMAYD/6EPubxKHHQUxaeyY6CE1sKTbR/7t0qcO57nHEAD4j/7Q0cueOjooHYDk/6SxYyIGVrBSZ07MPYIAwL8uffJY+LIn1aFHgUsaOyZ6qLpdvH3kz/SZ4x4/AOBf+s3ulz15VB18FLSksWOih6qj4u0jf3bpuqMl7vEDAP72v9Ydbb1UH3wUqKSxYyI9sKTbR/7so6H2XPfoAQB/u3TdkULpICR/J40dEzGwAtS6oy3usQMAwaBfxVI5FJyksWMiPbCk20c+7Ik3S90jBwCCQb+KJR6I5NuksWMiBlYwmrbuyKD+zWX3yAGA4Ji27mirSh2EFISksWMiPbCk20f+6mNPHGl0jxoACJaPrjtUqJ5lqsOQgpA0dkw0NLDk20j+6aNPHilwjxoACB71LLNVpZ9tks+Txs5oikbecf74m6FOHpX/O2OpZFdUvH3kp97kw0UBBNvHQkfy5QOS/JY0dqTaj3U4r7962Pmvl37v7Hjmp07oq03Ot+c3ObvLTjuNle86+zb92Xn1Z38e99hiYAWgdUfWu0cMAATXR544Ev6oOhTJ340cOgMDbzmHIsed3/zyT86PGn+XGFNFebvP2pJZ9c6/fqc/MbKSjWds6YEl3T7yRx954s3BS0Lt09zjBQCC68JQ+1R1KMakw5L80RWVB5y2N44lXpWqrfpPZ2XpD8QRda5qvnHifQNreKMdWwwsn7fuSJV7tAAALgkdLv6IOhzJ/mb+y+vOTY/+1pn34M+dBXf/2Ln/ujpxLI2nhsd6xXE1Mq+xpQeWdLvJ/i7h1SsAONPFj7+575LH33TIjj6xqs255p9/79z8pV86ty/+385dBf8mjqJUNtqBNTw9tn7/iz87sZPuwNp5TPz3Ifu7+HFevQKAM1wSOjDtkscPx6WDk8w247t/dK77+stO/kP/x1mw8EfO/TfuFQdQuhvPwBref2x719n8TI+zMNQu/nuSvV38+OFBfYa4xwkAYLiLQm+WXpw4LMlEl605mHhVas5XfuXctuSnzoIFL4pDx1QTHVjDq1v1thNa050YW9LXguzqw6HDIfcYAQBIPvz4m/ukA5RS2xXlf3JmffOVxI/47rj3353CW14QR002lcqBNTzGlt2pMyNy+dr2ye4RAgCQ6N8q/PDaw1H1jFQ/K6UUdM23X3NuKv2NM2/ZzxI/4pPGiw2la2AN772xtTYqfi0p+7oodIhPbQeA0bg4dGj6RWsPDUqHKZ29T618w8kre8W5+eFfOAX3/cQpvO174lCxtUwMrOExtixo7eF97rEBABiNqaFDhRepA5TkrvqX150b/ul3Tn7Jz535+o3ns8288TyTZXpgDW/42JK+H2Qg9SSMN7YDwDhctPZwlXiwBqhLV0ecq7/9mjPny83O7UWZ+TiEbM3kwBoeYytbOljqHhUAgLH60NrDzVPVYRqEPvudPzizvtaS+BGfflXqnjn/Kg6NoJYtA2t4w8eW9D2l9KTOBX40CAATMSV0YNpfrzkUnbr2kOOXPrb6oHP1t151bnrkV868ZU3O/LvsfeN5JsvGgTW8usq3nTWru5yCNUfF7zulJn0e6F+GcY8IAMB4XRg6mPshdaj+tT5cLewq/YnnD/3CueOefU5hfvZ/HEK2lu0Da3h7Vr3lVKyOJcaWdJ+gcbbm4OCFochs92gAAEyUrSNLv0IljQUaezYNrOExtlLXhWsOlblHAgAgVfTIUgds9EPqoLWhj1fsF4cCjS9bB9bwho8t6T5DZ++v1h4Ku0cBACDVEiNrtRpZa9Shm+Vd9a1XxaEQxJbNCjtfu+WHTvn8l5wn7v2ls3HJy07FgrG9uueHgTW8PZVqbK1SY2u1GlvufYbkLlxzsMk9AgAA6TI0siJRdejqgzdru+pbr4hDwc8tubYuMaS+c+dLzpq7f54YUjtL/uBUP/zGGa1e+F/iP+Ns+W1gDS85tm5XY0u6LwW7SHMOfwoHADJDj6wPro5E5AM5O/L7wHo0/wfOYwU/SQwlPaS2PvB7cUidLQaWHGPrfbVeGPoDvzEIAJmkD94Pqme3f6UO4mzMLwPrkTmNzjfn/TgxiDYs/q1Ttfw1cTCNNQbWuRs+tqT7mJ9TT6Ci+mNa3Ic7ACDT/nL1oeoPrtYHcnZ1VZl9A0v/eE8Pn6cX/dp5bukr4jBKVQyssZUYW5VDY0u6v/mpKasjkUmhg7nuQxwAYMqUykiZdFCbzMaBNdYf800kBtb4S46tW1YdEe97NjdlNT8WBICsMmV1W+GUVQfjf6kO6WzoSoMDa+SbzUuuf178742MgWVfNZVx558rTyfGlnQ/tCk1rpp4QzsAZKEPVByarg7pFunwznSZGFjSb+1te/D1M8bMwzeN7u8aMrDszuaxNWVNhM+5AoCspp4BT1p9cP2U1RH9Xg5jpXJgjXZInS0GVvAaGlunEmNLun9mU5NWtYXcRy8AINtNrozMnrwqEpmySh3iBrrym+MbWHpITeTjD6QYWMGupsIdW5VqbAn3VVNNqozEJq06mO8+ZAEA1tCvZlUeXK+GlpPpxjKw9Keap3PcMLAo2U41tu5ddVS8z2ayD1RGmnJ4MzsA2G3SqgMFk1a1RaWDPl2NZWCtW/R/xRGSqhhYNLzvVbzjXLXqkHi/zUTq8VjuPjQBANZb2z5ZPWsum1QZiU9KHPLpjYHlHQPLbI9UnhDvt+mtreWCygN57iMSAOAroT9MvWBVW9WkirZBNbb0+0DS0pXfYGB5xcAy26OVJ8X7bVqqiMQvqGwrdR+BAAA/m1R+MPcvKg/s+0Blm5OOrvzG/xeHghQD69wxsFLbo5UnxPttqrugoi3Me60AIIAuqIzMVs+um6SLw0RiYHnHwDJbugeWekw168eW+zADAASVfkXr/FVtVeoZt/5xhr5ATKgZDCzPGFhm0wNLut+moKbzVu3noxcAACOsbZ98QeWBkvMr2yLCxWPUMbC8Y2CZLdUDS/+4nTewAwBG5bzy/fnnV7SFz1/ZFv+LCnURGUMzvs7A8oqBZbZHK06I99uxpB4bsfMrDlTnVLwx3X3IAAAwNuetPFCQoy4mQxeVxMXFMwaWdwwss+mBJd1vR1POyrbG8yr2F7sPDQAAUuS7kdk5FW1V6tl7VLoA6RhY3jGwzDamgbXywGDOygP7zl/ZVprz2IFp7qMAAIA00hecijcK1bP69TkVB5rPqzjg6GZ8/WVxKEgxsM4dAyu1/aMaWMn7qpS6L7fkVOwP5Xz3T/wmIAAgS6iL0g0P/WKHNBSkGFjnjoGV2hIDa6UaUiv3x3JWHmhOPEFY+UZpTvn+fP2LHu49GQCA7HJ/Xk2+NBSkGFjnjoGV2jZX9D7DkAIAWIeB5R0Dy2zfq3y3xL2rAgBgDwaWdwwsszGwAABWYmB5x8AyGwMLAGAlBpZ3DCyzMbAAAFZiYHnHwDIbAwsAYCUGlncMLLMxsAAAVmJgecfAMhsDCwBgJQaWdwwsszGwAABWYmB5x8AyGwMLAGAlBpZ3DCyzMbAAAFZiYHnHwDIbAwsAYCUGlncMLLMxsAAAVmJgecfAMhsDCwBgJQaWdwwsszGwAABWYmB5x8AyGwMLAGAlBpZ3DCyzMbAAAFZiYHnHwDIbAwsAYCUGlncMLLMxsAAAVmJgecfAMhsDCwBgJQaWdwwsszGwAABWYmB5x8AyGwMLAGAlBpZ3DCyzMbAAAFZiYHnHwDIbAwsAYCUGlncMLLMxsAAAVmJgecfAMhsDCwBgJQaWdwwsszGwAABWYmB5x8AyGwMLAGAlBpZ3DCyzMbAAAFZiYHnHwDIbAwsAYCUGlncMLLMxsAAAVmJgecfAMhsDCwBgJQaWdwwsszGwAABWYmB5x8AyGwMLAGAlBpZ3DCyzMbAAAFZiYHnHwDIbAwsAYCUGlncMLLMxsAAAVmJgecfAMhsDCwBgJQaWdwwsszGwAABWYmB5x8AyGwMLAGAlBpZ3DCyzMbAAAFZiYHnHwDIbAwsAYCUGlncMLLMxsAAAVmJgecfAMhsDCwBgJQaWdwwsszGwAABWYmB5x8AyGwMLAGAlBpZ3DCyzMbAAAFZiYHnHwDIbAwsAYCUGlncMLLMxsAAAVmJgecfAMhsDCwBgJQaWdwwsszGwAABWYmB5x8AyGwMLAGAlBpZ3DCyzMbAAAFZiYHnHwDIbAwsAYCUGlncMLLMxsAAAVmJgecfAMhsDCwBgJQaWdwwsszGwAABWYmB5x8AyGwMLAGAlBpZ3DCyzMbAAAFZiYHnHwDIbAwsAYCUGlncMLLMxsAAAVmJgecfAMhsDCwBgJQaWdwwsszGwAABWYmB5x8AyGwMLAGAlBpZ3DCyzMbAAAFZiYHnHwDIbAwsAYCUGlncMLLMxsAAAVmJgecfAMhsDCwBgJQaWdwwsszGwAABWYmB5x8AyGwMLAGAlBpZ3DCyzfb/inUL3rgoAgD0YWN4xsAxW8W5Lw1pnsntXBQDAHgws7xhYGa9Rv2r1QuXbs927KAAA9mFgecfASn/fr3w3qkZV+YuPvTvNvVsCAGA3BpZ3DKy01ti48t0C964IAIB/jGVgVSxoEkdIqmJg+T9erQIABMJYBlayR+Y0Ot+58yXniXt/6Wxa8rI4TMYTA8vX8WoVACA4xjOwpB7N/4FTPv+lxI8Rn1v6ijhWzhUDy1/xahUAILBSNbCkvnbLDxOj6+lFv3aqlr8mDpjhMbB8E69WAQCCLZ0Da2RLrq1LjC79Xq71i397xlBiYNkbr1YBADBMJgeW1LJZ4cTo0kNG/9/Sf2dkDKysilerAAAYyfTAGk8MLLPxahUAAOfAwPKOgfW+eLUKAIDRsHFg6ZI/WtRvol9z98+djUtedrY9+Lo4kiZS0AcWr1YBADAOtg4sr/TweqzgJ4lxtGHxb0f1G4xnK8ADi1erAAAYr/uu3j1dGgp+TH9A6jfn/TgxmvRHR4zmQ1KDNLB4tQoAgBRaNLO2VRoLQUl/PETyNxn1p9PrHzfueuiPQRpYvFoFAECqFc5smLoob3d10czauDQagpp+n9doP5srmS0Di1erAADIoKEfGdaU6MGlapFGBJ09CwYWr1YBAJANEm+En7m7fNHM2n1qdMWkYUFDZePA4tUqAAAsUJxXk7to5u5iNbqqVM3S0AhqWTaweLUKAACbLb6mevaivNqyorzaRjW+otL4CEKmBxavVgEA4GNFM3ZOW5y3u1CNrvX6VS71n4PSIPFbBgcWr1YBABBERTP35BXNrC1dNHN3uCivNiINFNvL5MDi1SoAAHCGxMdDzKwtUMMklHgvlw8+JiJDA4tXqwAAwOi972MiLPwA1HQNLF6tAgAAKfPg5Q2T3b+XGFKjqynbX+VKw8Di1SoAAJB+wz8mIts+DDUVA4tXqwAAQFbIlg9DneDA4tUqAACQvUZ+TIQ0htLRWAcWr1YBAACrZeLDUMcwsHi1CgAA+M/Ij4lIxYeheg0sXq0CAACBNNEPQz3LwOLVKgAAgKSxfEzEkln1740qXq0CAAAYA+nDUB/6wvedHY8e49UqAFksJ+e/AZdC2gEmz/kGAAAAAElFTkSuQmCC;" vertex="1" parent="1">
          <mxGeometry x="510" y="387.5" width="76.19" height="40" as="geometry" />
        </mxCell>
        <mxCell id="CoAsc56-ZY_6wRdm-BIm-7" value="Base de Datos&lt;div&gt;MySql&lt;/div&gt;" style="text;html=1;align=center;verticalAlign=middle;whiteSpace=wrap;rounded=0;" vertex="1" parent="1">
          <mxGeometry x="503.09000000000003" y="427.5" width="90" height="30" as="geometry" />
        </mxCell>
      </root>
    </mxGraphModel>
  </diagram>
</mxfile>
